<?xml version="1.0" standalone="no"?>
<!DOCTYPE svg PUBLIC "-//W3C//DTD SVG 20010904//EN"
 "http://www.w3.org/TR/2001/REC-SVG-20010904/DTD/svg10.dtd">
<svg version="1.0" xmlns="http://www.w3.org/2000/svg"
 width="1000.000000pt" height="714.000000pt" viewBox="0 0 1000.000000 714.000000"
 preserveAspectRatio="xMidYMid meet">
<metadata>
Created by potrace 1.16, written by Peter Selinger 2001-2019
</metadata>
<g transform="translate(0.000000,714.000000) scale(0.100000,-0.100000)"
fill="#000000" stroke="none">
<path d="M2232 4675 c-101 -22 -204 -98 -257 -189 -42 -72 -55 -146 -55 -318
0 -149 -1 -158 -19 -158 -47 0 -51 -19 -51 -219 0 -196 4 -216 45 -223 16 -3
21 -12 23 -51 3 -47 3 -47 -23 -37 -15 6 -36 10 -48 10 -13 0 -37 15 -55 34
-58 61 -112 56 -197 -19 -49 -43 -84 -57 -133 -53 -49 3 -63 -10 -37 -35 21
-22 19 -27 -13 -27 -39 0 -44 -8 -25 -41 41 -69 153 -77 240 -18 26 18 50 36
51 41 2 4 14 8 26 8 15 0 25 -9 33 -31 10 -27 14 -29 32 -19 12 6 22 7 22 3 1
-4 2 -12 4 -18 1 -5 3 -16 3 -23 1 -8 10 -10 25 -7 12 3 31 -1 42 -9 19 -15
19 -16 3 -46 -10 -18 -18 -50 -18 -73 l1 -42 34 40 35 40 0 -116 0 -115 -72
-27 c-114 -43 -138 -58 -159 -98 -10 -21 -23 -40 -29 -44 -5 -3 -10 -17 -10
-31 0 -13 -5 -24 -10 -24 -6 0 -8 -11 -4 -27 7 -27 7 -27 -11 -9 -18 18 -18
20 -2 48 9 16 17 40 17 53 0 18 4 23 15 19 19 -8 33 27 27 67 -3 22 -7 26 -16
16 -29 -30 -94 -177 -105 -237 -17 -98 -21 -242 -8 -259 10 -12 -7 -13 -108
-7 -66 4 -139 9 -161 12 l-42 6 -21 -68 c-11 -37 -20 -68 -18 -69 9 -7 180
-55 212 -60 22 -3 64 -10 93 -16 50 -10 52 -12 51 -42 -2 -30 -2 -31 -6 -4 -5
30 -23 38 -23 10 0 -32 -33 -158 -45 -173 -18 -23 -155 -249 -155 -256 0 -3
-9 -18 -19 -32 -10 -15 -41 -70 -67 -122 -47 -90 -49 -100 -52 -187 -2 -51 3
-168 12 -260 9 -93 18 -242 21 -333 3 -94 10 -166 15 -168 35 -12 -24 -84 -88
-108 -61 -23 -72 -32 -72 -60 0 -31 27 -44 89 -44 41 0 57 5 83 28 53 45 86
63 131 70 l42 8 2 49 c2 28 7 77 13 110 5 33 12 162 16 288 6 197 5 239 -11
311 l-17 84 47 69 c26 37 50 70 53 73 3 3 2 -42 -1 -100 -6 -103 -4 -118 34
-285 24 -105 40 -225 49 -382 6 -95 13 -179 16 -187 4 -11 -9 -17 -50 -27 -76
-17 -128 -48 -137 -82 l-7 -27 198 0 198 0 -6 45 c-4 37 -1 48 14 59 17 13 19
32 19 258 0 253 -10 338 -51 423 -23 49 -17 92 53 374 l58 234 5 -534 5 -534
34 -70 c43 -88 112 -157 199 -198 l67 -32 800 0 800 0 59 24 c43 17 78 42 125
90 81 81 108 143 121 281 5 52 10 662 12 1355 1 693 4 1227 5 1188 l4 -73 44
0 c33 0 45 4 45 15 0 11 -11 15 -42 15 -63 0 -34 17 43 25 62 7 67 6 74 -14 6
-19 14 -21 80 -21 70 0 75 1 81 24 7 30 28 36 128 36 70 0 77 -2 61 -14 -17
-12 -16 -13 11 -12 16 1 34 4 39 8 24 15 33 -8 28 -69 -4 -49 -9 -62 -24 -66
-15 -4 -19 0 -19 19 0 17 -6 24 -20 24 -15 0 -20 -7 -20 -25 0 -14 5 -25 10
-25 6 0 10 -19 10 -43 0 -24 5 -48 11 -54 15 -15 2 -83 -15 -83 -9 0 -12 11
-9 34 3 33 -16 63 -25 38 -2 -6 -10 -8 -18 -5 -7 3 -12 8 -10 12 3 3 -20 6
-49 6 -57 0 -61 -16 -7 -30 46 -11 62 -33 64 -89 l1 -51 6 45 c3 25 6 -46 6
-157 1 -111 -2 -201 -5 -201 -48 4 -50 1 -50 -81 0 -75 1 -80 23 -83 18 -2 23
-10 25 -43 5 -54 -19 -275 -29 -275 -5 0 -9 -25 -9 -55 0 -42 -3 -55 -15 -55
-8 0 -15 7 -15 15 0 8 4 15 8 15 11 0 37 224 28 239 -4 5 -16 8 -27 6 -21 -4
-21 -3 -16 158 5 149 5 156 -6 87 -7 -41 -15 -79 -18 -85 -4 -5 -12 -63 -19
-127 -7 -65 -17 -118 -22 -118 -12 0 -10 -68 2 -75 6 -3 20 -3 31 0 20 7 21
12 15 64 -17 145 -19 171 -8 171 5 0 14 -37 18 -82 7 -75 9 -79 15 -43 4 23 5
10 2 -30 -5 -77 -8 -85 -29 -85 -10 0 -14 -12 -14 -40 0 -36 -2 -40 -25 -40
-19 0 -25 -5 -25 -21 0 -36 -19 -59 -49 -59 -16 0 -34 -7 -41 -15 -7 -8 -21
-15 -31 -15 -12 0 -16 -5 -13 -14 3 -8 1 -17 -5 -21 -6 -3 -11 1 -11 10 0 13
-7 15 -37 9 -21 -4 -40 -10 -43 -15 -3 -4 -23 -9 -45 -11 l-40 -3 -2 -66 -2
-66 32 6 c36 8 40 21 8 36 -16 7 -21 19 -21 46 l0 36 72 5 c40 3 78 3 85 1 7
-3 13 -20 13 -39 0 -19 3 -34 8 -35 4 0 16 -2 27 -4 11 -2 23 1 27 8 6 9 8 9
8 0 0 -7 7 -13 15 -13 10 0 15 -10 15 -34 0 -19 5 -38 10 -41 6 -4 10 -28 9
-53 -2 -72 13 -185 22 -170 7 10 9 10 9 -2 0 -9 -5 -21 -10 -26 -6 -6 -10 -41
-8 -80 2 -53 6 -69 18 -69 8 0 17 13 21 30 l6 30 7 -27 c12 -41 1 -61 -29 -56
-23 5 -25 2 -25 -31 0 -27 3 -32 10 -21 6 10 10 11 10 3 0 -22 37 -14 43 8 15
57 57 -27 61 -123 2 -43 -1 -58 -11 -58 -7 0 -14 -10 -14 -22 -1 -18 -2 -19
-6 -5 -3 10 0 24 7 32 7 9 8 15 0 20 -5 3 -10 1 -10 -4 0 -6 -19 -12 -42 -13
-37 -1 -39 -2 -10 -5 30 -4 32 -7 32 -42 0 -34 -3 -39 -26 -44 -14 -2 -41 -1
-60 3 -19 5 -34 4 -34 -1 0 -5 -5 -9 -11 -9 -5 0 -8 4 -5 8 3 5 -21 13 -52 20
-44 8 -69 8 -112 -2 -35 -8 -49 -15 -40 -19 8 -4 0 -5 -17 -2 -33 4 -33 4 -33
-37 0 -37 1 -40 13 -24 10 14 23 17 45 14 26 -4 32 -1 32 14 0 10 5 18 10 18
6 0 10 -4 10 -10 0 -5 11 -10 25 -10 14 0 25 5 25 10 0 9 -34 15 -72 12 -10
-1 -18 3 -18 8 0 6 15 10 34 10 19 0 38 4 41 10 14 22 26 8 23 -30 -2 -38 -19
-57 -39 -44 -5 3 -15 2 -21 -2 -9 -6 -5 -10 12 -16 20 -5 17 -7 -15 -6 -92 3
-105 0 -105 -26 l0 -24 213 55 c116 30 230 59 252 64 22 4 68 14 103 22 34 9
62 11 62 6 0 -5 -7 -9 -15 -9 -19 0 -19 -6 5 -82 11 -34 22 -83 26 -108 3 -25
12 -53 19 -63 11 -16 16 -16 56 -2 55 19 82 32 144 71 66 41 94 72 76 83 -9 6
-10 11 -2 15 6 4 16 4 21 1 13 -8 13 15 -1 73 -16 65 -33 80 -26 22 3 -25 3
-37 0 -27 -8 29 -26 20 -18 -10 9 -36 14 -41 25 -23 6 9 10 10 10 3 0 -15 -28
-43 -43 -43 -8 0 -7 3 2 9 9 6 10 11 2 15 -6 4 -11 17 -12 29 0 12 -3 16 -6
10 -6 -17 -63 12 -63 31 0 23 -29 27 -40 6 -8 -16 -8 -18 5 -14 11 5 15 -1 15
-25 0 -32 13 -38 72 -33 14 1 17 -5 14 -29 -5 -45 -26 -62 -26 -21 0 27 -4 32
-22 32 -21 -1 -22 -2 -5 -14 21 -16 22 -30 2 -22 -9 3 -15 0 -15 -8 0 -8 8
-17 17 -20 23 -9 3 -27 -22 -20 -16 4 -20 13 -19 47 1 37 1 38 -3 6 -4 -35 -6
-37 -48 -41 -24 -3 -55 -3 -69 -1 -23 5 -26 10 -28 52 -2 64 -2 69 -11 77 -4
4 -7 19 -6 33 0 23 1 24 8 6 7 -16 18 -20 64 -20 32 -1 57 1 57 3 0 2 -5 13
-12 25 -11 21 -11 21 -18 2 -5 -14 -17 -20 -43 -20 l-37 -1 -2 80 -1 81 -7
-60 -7 -60 -1 53 c-2 39 -6 52 -17 52 -8 0 -15 5 -15 11 0 6 -6 9 -12 6 -10
-3 -12 13 -8 72 l5 76 40 0 40 0 -15 85 -15 85 -3 -77 c-2 -53 -7 -78 -15 -78
-7 0 -22 -3 -34 -6 -21 -6 -23 -3 -23 35 0 40 -1 41 -35 41 l-35 0 0 120 0
120 70 0 c63 0 70 2 70 20 0 18 -7 20 -70 20 -93 0 -90 18 4 22 l75 3 7 -72
c5 -56 10 -73 22 -73 12 0 14 10 9 55 -5 53 -5 55 19 55 28 0 33 24 8 38 -9 5
-14 15 -10 21 4 6 12 8 18 5 7 -5 9 4 6 25 -3 18 -1 34 5 38 5 3 8 -12 7 -33
-3 -62 -1 -76 11 -68 7 4 9 21 5 45 -6 36 -4 40 21 51 16 7 31 18 35 24 4 6
26 24 50 40 24 16 52 37 62 46 11 10 25 18 32 18 7 0 14 3 16 8 3 8 146 112
154 112 3 0 29 18 59 40 30 22 58 40 63 40 9 0 25 181 27 285 0 28 3 52 7 55
3 3 9 57 13 121 7 103 6 117 -10 133 -27 27 -75 99 -75 114 0 6 -5 12 -10 12
-6 0 -25 23 -42 50 -17 28 -35 50 -39 50 -5 0 -9 5 -9 11 0 6 -22 41 -48 78
-27 36 -54 76 -61 89 -6 12 -16 22 -21 22 -9 0 -99 -58 -110 -71 -3 -3 -45
-33 -95 -67 -49 -33 -100 -70 -112 -81 -12 -12 -26 -21 -31 -21 -5 0 -21 -10
-36 -21 -15 -12 -29 -19 -31 -17 -3 2 8 105 23 229 16 123 27 229 24 236 -2 7
-22 15 -45 18 -23 3 -91 12 -152 21 -60 9 -129 16 -152 16 -24 1 -43 4 -43 8
0 6 -111 20 -200 25 -34 2 -35 3 -35 45 0 34 4 44 18 46 45 6 47 16 47 219 0
173 -2 194 -18 208 -10 10 -26 17 -35 17 -15 0 -17 17 -17 158 0 180 -13 246
-63 331 -37 62 -101 117 -184 158 l-58 28 -765 2 c-624 1 -777 -1 -828 -12z
m1636 -113 c51 -27 104 -82 129 -131 17 -34 18 -132 18 -1876 0 -1744 -1
-1842 -18 -1876 -25 -49 -78 -104 -129 -131 l-43 -23 -787 -3 -786 -2 -57 26
c-67 32 -124 93 -148 161 -17 48 -18 142 -18 1849 0 1101 4 1812 10 1831 17
58 53 111 97 143 88 63 34 60 899 57 l790 -2 43 -23z m1279 -1576 c-6 -16 81
-20 100 -5 14 13 22 0 27 -45 3 -31 16 -47 16 -20 0 15 2 16 9 5 12 -18 2 -44
-14 -37 -7 2 -12 -1 -12 -7 1 -42 -4 -47 -40 -48 -21 0 -31 -3 -23 -6 23 -9
50 -40 50 -58 0 -9 11 -28 25 -43 21 -22 27 -25 35 -12 5 8 12 11 16 7 4 -4 0
-15 -10 -26 -9 -10 -16 -22 -15 -27 4 -21 -3 -32 -47 -79 -81 -89 -106 -132
-98 -168 3 -17 10 -38 15 -47 43 -79 69 -190 45 -190 -5 0 0 -10 12 -23 30
-32 28 -37 -12 -34 -31 2 -33 4 -25 25 9 24 11 67 2 45 -2 -7 -11 -13 -19 -13
-8 0 -14 -7 -14 -15 0 -9 -9 -15 -25 -15 -14 0 -25 -6 -25 -13 0 -8 -10 -19
-22 -25 -20 -10 -17 -11 18 -6 23 3 45 1 48 -4 3 -5 -5 -7 -17 -5 -18 4 -22 0
-23 -21 -2 -29 -1 -30 24 -17 9 5 25 12 35 15 10 3 16 9 13 14 -2 4 7 8 22 9
26 2 26 1 5 -7 -13 -5 -23 -13 -23 -18 0 -4 -20 -16 -45 -26 -25 -11 -45 -25
-45 -33 0 -15 -9 -16 -30 -3 -9 5 -19 5 -27 -2 -18 -15 -16 -31 3 -24 15 6 15
4 3 -10 -10 -12 -14 -13 -18 -3 -2 8 -14 0 -31 -21 -29 -36 -50 -34 -50 5 0
17 6 25 23 27 12 2 26 13 32 26 5 12 13 22 17 22 5 0 8 9 8 20 0 24 -22 26
-40 5 -7 -8 -19 -15 -26 -15 -8 0 -14 -4 -14 -10 0 -21 -26 -7 -47 25 -18 29
-20 40 -12 69 5 20 16 41 23 49 17 17 33 167 18 167 -6 0 -13 -19 -15 -42 -3
-42 -4 -42 -5 8 -2 56 -19 114 -33 114 -12 0 -12 -32 0 -62 15 -40 25 -182 12
-174 -6 4 -11 37 -11 81 0 55 -4 74 -15 79 -17 6 -21 76 -5 76 6 0 10 7 10 15
0 8 -5 15 -10 15 -6 0 -24 14 -42 30 -34 33 -85 42 -74 14 3 -9 6 -47 6 -86 0
-61 2 -69 18 -66 13 2 18 15 20 51 3 43 5 46 23 37 14 -8 19 -21 19 -49 0 -30
4 -40 20 -44 18 -5 20 -14 20 -87 l0 -82 -32 7 c-18 4 -36 9 -40 12 -5 2 -8
35 -8 74 0 39 -4 69 -10 69 -6 0 -10 -30 -10 -69 0 -46 -4 -70 -12 -74 -10 -3
-12 14 -10 74 3 61 0 79 -10 79 -10 0 -12 19 -10 80 3 61 0 80 -10 80 -10 0
-9 3 2 10 12 8 12 12 2 18 -11 7 -10 31 3 130 19 146 20 148 52 157 21 5 24
10 19 33 -3 15 -3 21 0 15 8 -18 41 -16 48 2 3 8 12 15 21 15 8 0 15 5 15 10
0 14 -37 13 -42 -1 -3 -9 -9 -8 -24 1 -15 9 -19 20 -16 46 4 28 8 34 29 34 13
0 22 4 19 9 -10 16 21 20 41 6 10 -8 23 -14 28 -15 6 0 4 4 -3 8 -9 6 -6 12
13 20 26 12 33 4 13 -16 -9 -9 2 -12 49 -12 34 0 65 5 68 10 5 8 11 7 21 -1 8
-6 17 -9 21 -5 3 3 1 6 -5 6 -16 0 -15 27 1 33 18 6 49 -12 44 -27z m-3237
-56 c-12 -7 -12 -12 -2 -22 9 -9 12 -9 12 1 0 10 3 11 14 2 10 -8 16 -49 21
-131 4 -71 11 -120 18 -120 6 0 7 21 2 63 -14 117 -14 127 -5 127 6 0 11 -26
11 -57 1 -50 3 -53 8 -23 l7 35 6 -30 c4 -16 2 -31 -3 -33 -5 -2 -9 -22 -8
-45 1 -36 2 -38 9 -17 6 19 8 9 9 -37 1 -40 -3 -63 -11 -65 -10 -4 -13 -59
-14 -224 0 -120 -4 -227 -8 -236 -4 -9 -3 -26 4 -37 7 -15 8 -27 1 -39 -9 -15
-10 -13 -11 9 0 15 -7 32 -15 39 -9 8 -15 30 -15 57 0 40 2 45 20 40 19 -5 20
0 20 74 0 43 -3 78 -7 78 -29 -5 -33 4 -35 79 l-2 77 -6 -75 -6 -75 -2 73 c-2
57 1 74 13 78 13 5 15 30 12 168 -2 116 -7 167 -17 183 -11 17 -11 24 -2 36
10 12 8 15 -14 15 -14 0 -33 7 -42 16 -15 15 -15 16 5 16 12 0 25 5 28 11 4 6
10 8 13 4 4 -3 0 -10 -8 -15z m3446 -322 c4 -7 9 -44 10 -83 1 -49 -1 -63 -7
-47 -10 27 -35 38 -53 23 -7 -6 -16 -8 -19 -4 -4 3 -7 -12 -7 -35 0 -26 -5
-42 -12 -42 -9 0 -9 -3 0 -12 7 -7 12 -22 12 -34 0 -13 7 -24 18 -27 11 -3 7
-5 -10 -6 -22 -1 -27 4 -30 27 -2 21 -9 28 -30 30 -32 4 -38 18 -29 63 5 25
13 35 29 37 14 2 28 17 39 40 21 46 27 50 61 44 22 -4 25 -2 15 9 -7 7 -13 17
-13 21 0 12 18 9 26 -4z m-3676 -408 c0 -5 -11 -10 -24 -10 -14 0 -27 -4 -30
-8 -10 -16 108 -8 121 8 11 13 12 13 13 -4 0 -17 6 -18 75 -12 l75 7 0 -82 0
-81 -75 4 c-79 3 -105 -8 -32 -15 33 -3 29 -4 -20 -5 -35 -1 -63 2 -63 7 0 15
-33 22 -42 9 -8 -10 -11 -10 -15 0 -2 6 -15 12 -28 12 -19 0 -24 6 -27 32 -2
22 -9 34 -20 36 -15 3 -18 -4 -18 -32 0 -29 -4 -36 -20 -36 -17 0 -18 3 -9 27
5 14 8 32 5 40 -3 7 -2 12 2 12 25 -4 50 16 54 42 5 31 -8 41 -15 12 -3 -11
-5 -7 -6 10 -1 23 3 27 17 23 13 -5 42 0 80 13 1 1 2 -3 2 -9z"/>
<path d="M2284 1869 c-51 -12 -54 -19 -54 -161 0 -153 -8 -148 227 -148 l184
0 24 26 c23 25 25 35 25 126 0 99 -8 131 -39 155 -19 15 -303 16 -367 2z m351
-186 c16 -15 19 -41 9 -67 -5 -12 -21 -16 -73 -16 -69 0 -91 10 -91 42 0 42
21 57 82 57 38 -1 63 -6 73 -16z"/>
<path d="M6031 4674 c-117 -31 -212 -108 -266 -214 -31 -61 -48 -199 -43 -355
3 -83 1 -90 -17 -93 -11 -2 -28 -11 -37 -20 -16 -13 -18 -37 -18 -203 0 -199
5 -219 50 -219 18 0 34 -23 23 -34 -4 -3 -14 -6 -23 -6 -9 0 -24 -8 -33 -18
-15 -16 -17 -45 -17 -199 0 -100 3 -188 6 -197 3 -8 21 -20 40 -26 l34 -12 0
-1146 c0 -1248 -2 -1190 56 -1290 37 -62 99 -118 174 -155 l65 -32 770 -3
c565 -2 785 0 825 9 80 17 137 49 201 113 l56 56 -5 54 -4 55 68 -2 69 -1 7
49 c3 28 7 129 7 225 1 96 6 193 12 215 5 22 27 122 48 223 21 100 41 184 46
185 4 1 15 -11 24 -28 9 -16 46 -79 82 -140 93 -155 98 -165 87 -200 -23 -80
-65 -488 -53 -525 4 -14 21 -19 71 -25 36 -4 67 -5 70 -3 11 12 96 519 101
608 7 111 -38 285 -152 590 -26 69 -48 136 -50 150 -3 30 4 52 16 44 5 -3 6 2
3 10 -4 11 5 21 30 33 21 10 35 22 32 29 -3 8 1 11 9 8 15 -6 43 15 121 92 51
51 52 53 43 90 -5 22 -12 48 -14 59 -15 64 -118 230 -184 296 -25 25 -34 29
-46 19 -8 -6 -24 -10 -37 -7 -21 4 -20 4 4 6 59 3 36 44 -32 57 -38 8 -65 29
-55 44 3 5 38 10 76 10 63 0 72 3 94 26 38 41 34 89 -10 134 l-35 36 16 62
c39 155 -34 264 -187 278 -94 9 -171 9 -197 -1 l-23 -8 3 94 c3 89 4 94 25 97
46 7 53 34 53 214 0 91 -4 178 -9 191 -5 14 -23 29 -39 35 l-30 10 -4 184 c-4
163 -6 189 -27 240 -48 117 -170 214 -300 238 -33 6 -336 10 -785 9 -606 0
-740 -3 -785 -15z m1646 -116 c81 -53 117 -100 139 -180 21 -78 20 -1200 -1
-1218 -8 -6 -33 -21 -57 -33 -34 -17 -46 -31 -56 -61 -23 -71 8 -123 84 -142
36 -9 44 -20 44 -65 0 -34 1 -35 31 -31 37 5 83 -32 75 -61 -2 -10 1 -20 8
-23 16 -6 6 -76 -12 -82 -9 -3 -12 16 -12 70 0 44 -4 68 -9 60 -6 -10 -10 -9
-14 7 -3 12 -11 21 -17 21 -9 0 -10 -10 -4 -37 13 -54 6 -204 -9 -222 -23 -28
-48 -94 -40 -102 5 -5 19 -2 33 6 71 39 191 95 205 95 8 0 15 4 15 9 0 6 11
22 25 37 25 27 25 44 -1 44 -9 0 -14 10 -13 33 2 30 2 30 6 5 5 -33 23 -38 23
-6 0 25 8 20 13 -8 6 -38 14 -43 58 -27 23 7 51 25 62 39 18 23 25 25 65 20
25 -3 53 -13 61 -21 17 -18 17 -19 -52 -70 -15 -11 -27 -24 -27 -29 0 -12 108
-172 127 -187 14 -12 18 -59 5 -59 -4 0 -15 -12 -24 -27 -9 -16 -28 -41 -42
-58 -15 -16 -25 -37 -23 -45 5 -21 -41 -20 -53 1 -7 12 -15 280 -9 299 0 3 2
19 4 37 2 29 1 30 -12 17 -13 -12 -15 -44 -14 -170 1 -90 -2 -154 -7 -154 -15
0 -22 27 -20 73 l1 42 7 -50 c5 -37 7 -19 8 73 2 115 1 122 -17 122 -15 0 -19
-6 -18 -27 1 -18 -3 -27 -10 -25 -10 1 -13 -22 -13 -93 0 -57 4 -95 10 -95 6
0 10 34 10 82 0 45 3 79 6 75 3 -3 3 -76 -1 -162 -8 -161 -17 -194 -21 -77 -2
37 -8 94 -14 127 -11 64 -4 179 11 169 5 -3 9 2 9 11 0 8 11 20 25 25 14 5 25
17 25 26 0 15 -2 15 -25 0 -13 -9 -33 -16 -44 -16 -11 0 -23 -4 -26 -10 -3 -5
-19 -10 -36 -10 -16 0 -29 -5 -29 -12 0 -7 -14 -22 -30 -33 -16 -11 -30 -23
-30 -27 0 -5 -7 -8 -15 -8 -8 0 -15 -4 -15 -9 0 -12 -106 -91 -122 -91 -33 -1
-48 -27 -48 -81 0 -30 -7 -76 -15 -103 -19 -62 -19 -86 0 -86 11 0 14 -7 10
-22 -8 -31 -8 -87 -1 -708 6 -601 5 -616 -59 -694 -19 -24 -58 -56 -87 -72
l-53 -29 -795 0 c-903 0 -830 -7 -921 87 -86 88 -80 -71 -77 1973 l3 1800 24
45 c39 74 98 125 176 152 11 3 376 6 810 5 l790 -2 42 -27z m587 -1411 c7 -36
6 -37 -17 -32 -14 4 -28 2 -31 -4 -4 -6 -2 -11 5 -11 8 0 9 -3 0 -14 -17 -20
13 -44 34 -26 12 10 12 5 -2 -35 -18 -53 -79 -121 -117 -131 -20 -5 -26 -13
-28 -44 l-3 -38 -62 36 c-52 31 -63 41 -63 64 0 37 -41 128 -57 128 -21 0 -45
45 -37 74 4 19 13 26 30 26 13 0 24 -5 24 -11 0 -9 21 -10 73 -6 39 3 63 2 53
-2 -25 -10 -5 -23 21 -15 13 4 14 3 5 -3 -17 -13 -4 -45 17 -41 10 2 16 13 15
28 -1 14 4 28 10 32 6 4 -2 8 -19 9 -27 1 -26 2 10 10 55 12 115 40 115 53 0
23 18 -11 24 -47z m-114 -932 c7 -66 16 -134 22 -151 8 -22 8 -36 -1 -50 -10
-17 -11 -16 -5 7 3 15 1 30 -4 33 -5 3 -13 -10 -16 -30 -6 -29 -10 -33 -21
-24 -8 7 -13 15 -10 19 2 4 -19 9 -48 10 -28 1 -53 4 -55 6 -2 2 -4 32 -4 67
l-1 63 -53 -3 c-39 -3 -54 -8 -54 -19 0 -8 5 -11 10 -8 6 4 17 1 25 -5 8 -6
18 -9 24 -6 14 9 42 -5 38 -18 -2 -6 -12 -11 -23 -11 -12 0 -19 -7 -19 -19 0
-11 -8 -20 -18 -22 -12 -2 -17 5 -17 22 0 28 -5 29 -55 8 -20 -8 -40 -12 -43
-9 -9 8 19 25 43 25 17 1 16 3 -7 16 -16 8 -28 19 -28 25 0 6 5 7 10 4 6 -3
10 4 10 17 0 13 7 32 15 42 8 11 15 29 15 40 0 17 -2 18 -10 6 -5 -8 -10 -10
-10 -5 0 6 5 17 10 25 6 10 10 11 10 3 0 -7 5 -13 10 -13 6 0 10 9 10 20 0 24
13 26 34 4 21 -20 20 -31 -5 -62 l-22 -27 6 45 6 45 -24 -49 c-14 -28 -25 -50
-25 -51 0 -1 19 -1 43 -1 28 1 41 5 40 14 -2 6 2 12 8 12 5 0 7 5 3 11 -5 8 1
10 18 7 23 -4 25 -1 27 38 l2 43 -30 -9 c-16 -4 -31 -6 -34 -4 -8 8 5 54 15
54 5 0 29 16 52 35 25 20 54 35 70 35 26 0 26 0 26 -80 0 -126 20 -97 22 33 1
79 3 90 5 37 1 -41 7 -129 13 -195z"/>
<path d="M4152 2300 c0 -157 3 -274 5 -261 4 22 8 23 53 19 49 -5 70 4 70 29
0 9 -18 13 -61 13 l-60 0 3 37 3 38 77 0 c70 1 78 -1 89 -22 13 -25 24 -29 34
-13 6 10 -17 40 -32 40 -4 0 -7 36 -5 80 2 44 7 79 10 79 34 -5 42 3 41 39 -2
79 -25 112 -46 67 -10 -22 -9 -25 9 -25 16 0 19 -6 16 -37 -2 -21 -6 -36 -9
-33 -3 3 -13 -1 -22 -9 -13 -10 -17 -31 -17 -85 l0 -72 -67 1 -68 0 0 158 c0
86 -3 157 -7 157 -5 0 -8 5 -8 11 0 6 8 9 18 7 9 -2 16 -9 15 -14 -1 -6 23 -9
55 -9 31 1 63 -3 70 -8 7 -5 15 -7 19 -3 9 9 1 15 -25 19 -13 2 -29 13 -37 24
-10 14 -29 22 -61 26 -25 2 -50 11 -55 18 -5 8 -8 -108 -7 -271z"/>
<path d="M4230 1685 c0 -8 -7 -15 -15 -15 -9 0 -27 -12 -40 -26 -24 -26 -25
-33 -25 -158 0 -72 4 -136 8 -141 4 -6 19 -16 35 -22 15 -7 27 -17 27 -23 0
-7 6 -17 13 -23 15 -15 97 -37 135 -37 29 0 112 31 112 42 0 19 -181 23 -222
4 -15 -7 -18 -3 -18 28 0 25 -4 36 -15 36 -8 0 -24 9 -35 20 -18 18 -20 33
-20 131 0 87 3 114 16 126 11 12 18 13 27 4 19 -19 24 -13 24 29 0 22 -1 40
-3 40 -2 0 -4 -7 -4 -15z"/>
<path d="M7886 612 c-3 -5 -8 -29 -11 -53 -4 -24 -13 -61 -21 -82 -26 -69 -26
-69 84 -61 53 4 98 8 100 9 2 2 -6 44 -19 93 -18 73 -26 91 -43 96 -32 9 -84
7 -90 -2z"/>
<path d="M8336 599 c-11 -10 -32 -19 -46 -19 -31 0 -40 -25 -40 -106 l0 -44
170 0 170 0 0 33 c0 46 -27 73 -86 88 -66 17 -108 35 -124 53 -16 20 -20 19
-44 -5z"/>
</g>
</svg>
